<?xml version="1.0" standalone="no"?>
<!DOCTYPE svg PUBLIC "-//W3C//DTD SVG 20010904//EN"
 "http://www.w3.org/TR/2001/REC-SVG-20010904/DTD/svg10.dtd">
<svg version="1.0" xmlns="http://www.w3.org/2000/svg"
 width="900.000000pt" height="600.000000pt" viewBox="0 0 900.000000 600.000000"
 preserveAspectRatio="xMidYMid meet">

<g transform="translate(0.000000,600.000000) scale(0.100000,-0.100000)"
fill="#ffffff" stroke="none">
<path d="M1040 5729 c-19 -9 -52 -20 -73 -23 -20 -3 -45 -10 -55 -15 -9 -5
-48 -24 -87 -43 -38 -18 -100 -55 -137 -81 -67 -48 -228 -211 -228 -230 0 -6
-8 -20 -19 -31 -37 -41 -79 -159 -100 -284 -20 -120 -21 -154 -21 -1432 0
-746 4 -1330 9 -1357 5 -26 15 -82 21 -123 20 -124 91 -255 196 -362 94 -95
179 -158 277 -206 183 -89 273 -101 769 -102 l298 0 5 -23 c4 -13 5 -43 3 -68
l-3 -44 -470 -5 -470 -5 -51 -27 c-28 -15 -75 -53 -105 -86 -43 -47 -289 -409
-432 -636 l-28 -45 21 -70 c20 -67 24 -73 73 -104 29 -18 71 -41 95 -51 41
-19 140 -19 4000 -13 3092 5 3965 9 3992 18 51 18 133 73 164 109 32 39 34 86
5 180 -16 53 -30 77 -62 107 -23 22 -130 132 -237 244 -292 307 -297 311 -381
344 l-74 29 -485 6 -485 5 -3 55 c-1 30 1 60 6 67 5 9 103 12 367 14 368 2
494 10 554 35 18 8 40 14 49 14 28 0 187 82 252 130 70 52 211 195 247 251 12
19 34 59 49 89 23 50 33 90 64 261 14 80 14 2665 -1 2761 -14 96 -36 183 -60
238 -49 111 -187 273 -301 353 -77 54 -230 127 -280 133 -24 3 -58 14 -76 25
-32 19 -104 19 -3395 18 -3215 -2 -3364 -2 -3397 -20z m6830 -250 c188 -52
227 -82 289 -224 23 -52 46 -117 51 -143 4 -26 14 -72 20 -102 10 -44 11 -344
2 -1440 -6 -762 -15 -1416 -20 -1455 -11 -81 -23 -116 -59 -168 -34 -49 -172
-154 -237 -181 -51 -21 -57 -21 -1826 -26 -976 -3 -2502 -5 -3390 -5 l-1615 0
-57 28 c-61 30 -184 143 -208 192 -8 17 -36 63 -62 103 -29 46 -50 92 -57 125
-9 50 -15 401 -26 1787 -3 349 -8 709 -10 800 -9 298 42 479 158 559 23 16 93
52 156 79 l113 51 1791 11 c986 6 2251 15 2812 19 561 5 1263 9 1560 9 516 1
543 0 615 -19z m-1545 -4109 l0 -65 -1895 0 -1895 0 -3 54 c-2 29 -1 60 2 67
5 12 302 14 1898 12 l1893 -3 0 -65z m-816 -464 c36 -19 51 -55 51 -121 0 -30
-5 -66 -12 -80 -26 -57 17 -55 -1046 -55 l-980 0 -31 29 c-29 27 -31 33 -31
101 0 81 9 103 48 124 40 22 1958 24 2001 2z"/>
<path d="M3540 5224 c-132 -24 -258 -72 -355 -137 -70 -46 -115 -86 -115 -101
0 -6 16 -23 35 -39 l34 -27 33 28 c138 119 274 166 473 166 119 -1 138 -4 223
-33 97 -33 184 -81 239 -133 l32 -31 35 29 c19 16 35 34 35 40 1 16 -47 57
-124 106 -137 86 -266 127 -420 133 -55 2 -111 2 -125 -1z"/>
<path d="M3505 4980 c-103 -21 -265 -112 -265 -149 0 -21 40 -61 62 -61 9 0
29 11 45 23 35 29 82 53 152 78 128 45 329 9 434 -78 16 -12 36 -23 46 -23 21
0 61 40 61 61 0 21 -75 74 -167 116 -73 34 -83 36 -203 39 -69 1 -143 -1 -165
-6z"/>
<path d="M3580 4761 c-49 -7 -150 -52 -171 -77 -10 -12 -9 -20 8 -42 24 -32
67 -40 92 -18 10 9 41 23 70 32 61 18 143 6 184 -27 35 -27 59 -24 92 11 35
37 28 48 -59 88 -65 31 -144 43 -216 33z"/>
<path d="M3549 4507 c-55 -46 -72 -112 -43 -169 52 -100 169 -118 246 -37 34
36 38 45 38 94 0 49 -4 58 -38 95 -38 39 -40 40 -108 40 -56 -1 -74 -5 -95
-23z"/>
<path d="M5235 4493 c-60 -63 -59 -138 2 -197 62 -60 140 -60 209 -1 38 33 39
35 39 100 0 64 -1 68 -37 101 -35 32 -42 34 -108 34 -68 0 -71 -1 -105 -37z"/>
<path d="M1248 4499 c-16 -9 -17 -54 -12 -697 4 -378 9 -889 13 -1137 l6 -450
249 -3 c175 -2 253 1 262 9 12 10 14 144 13 818 0 705 2 806 14 806 9 0 66
-56 128 -125 259 -288 275 -303 296 -266 4 8 53 63 109 122 56 60 134 146 175
192 69 77 99 98 99 70 0 -7 1 -375 3 -818 l2 -805 275 0 275 0 3 1142 2 1143
-23 5 c-12 3 -137 5 -278 3 l-256 -3 -29 -35 c-35 -41 -305 -352 -345 -397
-16 -18 -34 -33 -39 -33 -12 0 -30 18 -95 95 -27 32 -103 119 -167 192 -65 73
-124 144 -133 156 -15 22 -19 22 -273 24 -157 2 -264 -2 -274 -8z"/>
<path d="M1898 4503 c-10 -3 -18 -8 -18 -13 0 -16 293 -345 310 -348 9 -2 24
7 32 20 9 13 75 90 147 173 119 134 130 151 115 162 -13 10 -85 12 -293 11
-152 -1 -284 -3 -293 -5z"/>
<path d="M3685 4135 c-16 -7 -70 -25 -120 -40 -160 -48 -183 -63 -171 -109 5
-19 17 -28 54 -38 l47 -14 7 -69 c8 -82 6 -412 -3 -426 -3 -5 -19 -13 -34 -17
-36 -10 -69 -53 -61 -79 4 -11 18 -25 32 -31 32 -15 387 -16 415 -2 13 7 19
21 19 43 0 40 -7 50 -45 68 l-30 14 -3 344 c-1 234 -6 349 -13 358 -14 16 -55
16 -94 -2z"/>
<path d="M4290 4140 c-9 -5 -67 -25 -130 -46 -128 -41 -166 -67 -156 -107 4
-19 17 -29 48 -39 l43 -13 0 -250 0 -250 -34 -16 c-51 -24 -64 -66 -31 -99 19
-19 33 -20 204 -20 214 0 236 5 236 53 0 33 -24 67 -48 67 -6 0 -14 4 -17 10
-3 5 -6 116 -6 247 -1 232 0 238 21 255 29 24 93 40 125 32 53 -13 56 -30 53
-290 l-3 -239 -30 -14 c-38 -18 -45 -28 -45 -69 0 -47 23 -52 228 -52 195 0
225 7 230 52 3 28 -5 39 -53 67 l-30 18 -3 244 c-3 277 -11 321 -68 387 -53
62 -98 82 -186 82 -81 0 -134 -19 -199 -71 -43 -34 -59 -31 -59 11 0 49 -47
76 -90 50z"/>
<path d="M5385 4135 c-16 -8 -82 -30 -146 -50 -66 -20 -124 -44 -134 -55 -25
-27 -13 -68 23 -76 15 -3 37 -10 50 -15 l22 -9 -2 -247 -3 -248 -33 -16 c-56
-26 -70 -75 -30 -103 33 -24 399 -23 422 0 35 34 13 92 -41 108 l-23 7 0 340
c0 216 -4 347 -10 360 -13 22 -51 24 -95 4z"/>
<path d="M5990 4140 c-9 -5 -60 -23 -115 -40 -144 -45 -170 -60 -170 -101 0
-31 4 -35 45 -49 25 -8 48 -19 52 -25 4 -5 8 -117 8 -248 l0 -238 -37 -16
c-63 -26 -80 -66 -43 -103 19 -19 33 -20 214 -20 214 0 226 3 226 59 0 29 -14
46 -53 66 -20 10 -21 17 -20 250 1 234 1 240 23 257 39 31 99 42 136 24 49
-23 56 -63 52 -304 -3 -208 -7 -232 -42 -232 -22 0 -46 -35 -46 -69 0 -25 6
-34 26 -41 34 -13 380 -13 405 0 13 7 19 21 19 43 0 40 -7 50 -45 68 l-30 14
-5 260 c-6 288 -12 320 -73 383 -52 55 -96 72 -182 72 -83 0 -127 -16 -197
-72 -39 -32 -58 -30 -58 5 0 51 -49 82 -90 57z"/>
<path d="M7011 4123 c-112 -46 -173 -129 -174 -237 -1 -89 16 -136 68 -187 25
-24 45 -46 45 -50 0 -3 -16 -23 -36 -45 -83 -89 -99 -216 -34 -261 30 -21 25
-39 -24 -86 -36 -34 -45 -51 -51 -89 -18 -117 54 -192 214 -222 104 -20 170
-20 289 -1 197 32 329 138 357 288 10 52 -26 145 -74 188 -74 66 -127 79 -332
79 -178 0 -180 0 -204 25 -26 25 -33 59 -14 71 6 4 73 7 148 8 129 1 139 2
195 30 71 36 130 95 152 153 15 39 16 93 2 178 -3 18 4 21 60 25 40 3 66 10
72 20 13 20 13 97 0 121 -15 28 -47 24 -135 -16 -74 -34 -79 -35 -102 -19 -58
38 -133 54 -247 54 -96 -1 -120 -4 -175 -27z m255 -118 c19 -30 29 -134 19
-200 -5 -35 -15 -55 -38 -76 -42 -38 -75 -37 -115 4 -26 27 -33 43 -38 94 -12
115 18 199 80 223 26 10 70 -12 92 -45z m-20 -755 c117 0 124 -1 153 -26 40
-33 41 -71 3 -107 -41 -39 -106 -59 -202 -61 -143 -2 -220 42 -220 126 0 22 5
49 11 60 10 19 17 20 72 14 33 -3 115 -6 183 -6z"/>
<path d="M1867 3624 c-9 -9 -9 -1376 -1 -1398 5 -14 43 -16 325 -16 l318 0 6
33 c3 17 5 336 3 707 -3 619 -4 675 -19 675 -10 0 -65 -56 -124 -125 -146
-171 -174 -200 -188 -200 -11 0 -170 177 -255 283 -34 42 -52 54 -65 41z"/>
<path d="M4917 2873 c-82 -27 -141 -92 -171 -186 -3 -9 -19 -20 -36 -23 -59
-12 -63 -57 -6 -72 l31 -8 3 -141 3 -141 -31 -11 c-25 -8 -31 -15 -28 -33 3
-23 4 -23 168 -23 l165 0 0 25 c0 19 -6 25 -34 31 -18 4 -38 13 -42 21 -5 7
-8 72 -7 143 l3 130 45 3 c54 4 72 17 68 51 -3 24 -7 26 -56 29 -36 2 -55 8
-59 18 -8 22 16 122 30 127 7 2 27 -9 45 -24 45 -40 78 -46 119 -24 38 21 52
57 32 82 -37 43 -152 56 -242 26z"/>
<path d="M3450 2805 c-17 -21 2 -43 46 -51 l34 -6 0 -219 c0 -167 -3 -221 -12
-223 -7 -3 -25 -7 -39 -10 -31 -7 -44 -32 -28 -52 17 -20 351 -20 368 0 19 23
1 46 -40 52 -21 4 -39 10 -39 15 0 5 0 101 0 214 0 113 0 209 0 214 0 5 15 12
34 15 44 8 63 30 46 51 -10 12 -44 15 -185 15 -141 0 -175 -3 -185 -15z"/>
<path d="M4119 2676 c-2 -3 -42 -14 -89 -26 -96 -25 -121 -40 -100 -64 7 -9
23 -16 35 -16 32 0 35 -15 35 -151 0 -118 0 -119 -25 -125 -35 -9 -51 -30 -35
-49 11 -13 37 -15 154 -13 138 3 141 4 144 25 3 17 -3 26 -22 33 -26 10 -26
10 -26 134 0 138 3 144 68 153 64 9 72 -7 72 -151 0 -122 0 -123 -26 -134 -18
-9 -24 -19 -22 -35 3 -22 5 -22 148 -22 143 0 145 0 148 22 3 17 -3 26 -22 33
l-26 10 0 130 c0 131 -8 170 -44 206 -51 51 -164 59 -242 18 -45 -24 -49 -25
-61 -8 -7 10 -13 21 -13 26 0 8 -43 11 -51 4z"/>
<path d="M5275 2652 c-110 -53 -151 -116 -143 -223 9 -122 110 -201 264 -207
106 -5 180 16 236 66 133 120 90 305 -87 371 -86 32 -193 29 -270 -7z m199
-65 c18 -25 21 -42 21 -142 0 -106 -2 -115 -24 -139 -25 -27 -59 -33 -90 -16
-62 33 -69 252 -10 311 29 29 76 22 103 -14z"/>
<path d="M5919 2653 c-128 -65 -131 -183 -6 -237 28 -12 78 -28 110 -35 31 -7
64 -19 72 -27 38 -38 0 -74 -76 -74 -52 0 -79 15 -79 44 0 35 -32 58 -77 54
l-38 -3 -3 -55 c-3 -56 -3 -56 35 -74 55 -27 221 -34 295 -12 72 21 128 78
128 132 0 60 -25 93 -96 125 -35 16 -72 29 -81 29 -30 0 -97 27 -107 43 -15
24 1 45 38 53 53 9 80 -1 97 -38 16 -38 68 -59 93 -39 16 14 29 71 20 94 -10
26 -91 47 -184 47 -74 0 -94 -4 -141 -27z"/>
<path d="M7128 2665 c-82 -30 -121 -74 -120 -136 0 -21 8 -49 17 -63 20 -31
99 -68 177 -85 131 -28 126 -101 -6 -101 -45 0 -76 22 -76 53 0 26 -29 47 -64
47 -44 0 -58 -19 -54 -72 3 -39 7 -45 42 -62 57 -28 213 -34 291 -11 85 24
125 69 125 137 0 43 -4 54 -32 82 -31 31 -59 42 -192 79 -64 18 -80 41 -47 68
23 19 76 25 97 11 6 -4 17 -20 25 -36 28 -59 112 -54 122 6 7 46 -13 73 -67
87 -60 15 -192 13 -238 -4z"/>
<path d="M6336 2654 c-7 -18 10 -44 29 -44 18 0 38 -27 87 -120 25 -47 68
-127 97 -178 28 -50 51 -101 51 -112 0 -11 -13 -34 -29 -52 l-28 -31 -37 22
c-66 41 -166 13 -166 -46 0 -36 52 -63 123 -63 115 0 141 29 293 333 113 226
123 242 153 250 26 6 32 12 29 30 -3 21 -7 22 -108 22 -101 0 -105 -1 -108
-23 -3 -18 2 -23 27 -28 37 -8 38 -16 10 -74 -12 -25 -30 -64 -40 -88 -10 -24
-23 -41 -29 -37 -15 9 -91 176 -84 186 3 5 13 9 23 9 28 0 46 26 31 45 -10 12
-42 15 -165 15 -132 0 -154 -2 -159 -16z"/>
</g>
</svg>
